<mxfile host="app.diagrams.net" modified="2024-02-06T04:13:39.958Z" agent="Mozilla/5.0 (Windows NT 10.0; Win64; x64) AppleWebKit/537.36 (KHTML, like Gecko) Chrome/121.0.0.0 Safari/537.36" etag="f6AkH-IczKjI2HcOeXWq" version="23.1.1" type="github">
  <diagram name="Page-1" id="kGj8BTXU00kIGAkDbmeG">
    <mxGraphModel dx="1434" dy="772" grid="1" gridSize="10" guides="1" tooltips="1" connect="1" arrows="1" fold="1" page="1" pageScale="1" pageWidth="827" pageHeight="1169" math="0" shadow="0">
      <root>
        <mxCell id="0" />
        <mxCell id="1" parent="0" />
        <mxCell id="EAQPb3Y_r5TRled_vukK-6" value="" style="rounded=0;whiteSpace=wrap;html=1;rotation=90;" parent="1" vertex="1">
          <mxGeometry x="120.82" y="239.19" width="561.12" height="263.5" as="geometry" />
        </mxCell>
        <mxCell id="EAQPb3Y_r5TRled_vukK-7" value="Perpus Digital" style="text;html=1;strokeColor=none;fillColor=none;align=center;verticalAlign=middle;whiteSpace=wrap;rounded=0;fontStyle=1;fontSize=15;" parent="1" vertex="1">
          <mxGeometry x="349.57" y="100" width="103.62" height="30" as="geometry" />
        </mxCell>
        <mxCell id="EAQPb3Y_r5TRled_vukK-8" value="Pengunjung" style="shape=umlActor;verticalLabelPosition=bottom;verticalAlign=top;html=1;outlineConnect=0;" parent="1" vertex="1">
          <mxGeometry x="90" y="285.94" width="80" height="170" as="geometry" />
        </mxCell>
        <mxCell id="EAQPb3Y_r5TRled_vukK-9" value="Pustakawan" style="shape=umlActor;verticalLabelPosition=bottom;verticalAlign=top;html=1;outlineConnect=0;" parent="1" vertex="1">
          <mxGeometry x="630" y="285.94" width="80" height="170" as="geometry" />
        </mxCell>
        <mxCell id="EAQPb3Y_r5TRled_vukK-12" value="" style="ellipse;whiteSpace=wrap;html=1;" parent="1" vertex="1">
          <mxGeometry x="321.88" y="150" width="159" height="80" as="geometry" />
        </mxCell>
        <mxCell id="EAQPb3Y_r5TRled_vukK-13" value="Form Pengunjung" style="text;html=1;strokeColor=none;fillColor=none;align=center;verticalAlign=middle;whiteSpace=wrap;rounded=0;" parent="1" vertex="1">
          <mxGeometry x="346.38" y="175" width="110" height="30" as="geometry" />
        </mxCell>
        <mxCell id="EAQPb3Y_r5TRled_vukK-14" value="" style="ellipse;whiteSpace=wrap;html=1;" parent="1" vertex="1">
          <mxGeometry x="321.88" y="250" width="159" height="80" as="geometry" />
        </mxCell>
        <mxCell id="EAQPb3Y_r5TRled_vukK-15" value="Riwayat Kunjungan" style="text;html=1;strokeColor=none;fillColor=none;align=center;verticalAlign=middle;whiteSpace=wrap;rounded=0;" parent="1" vertex="1">
          <mxGeometry x="346.38" y="275" width="110" height="30" as="geometry" />
        </mxCell>
        <mxCell id="EAQPb3Y_r5TRled_vukK-16" value="" style="ellipse;whiteSpace=wrap;html=1;" parent="1" vertex="1">
          <mxGeometry x="321.88" y="350" width="159" height="80" as="geometry" />
        </mxCell>
        <mxCell id="EAQPb3Y_r5TRled_vukK-17" value="Pencarian Buku&amp;nbsp;" style="text;html=1;strokeColor=none;fillColor=none;align=center;verticalAlign=middle;whiteSpace=wrap;rounded=0;" parent="1" vertex="1">
          <mxGeometry x="341.38" y="375" width="120" height="30" as="geometry" />
        </mxCell>
        <mxCell id="EAQPb3Y_r5TRled_vukK-18" value="" style="ellipse;whiteSpace=wrap;html=1;" parent="1" vertex="1">
          <mxGeometry x="321.88" y="450" width="159" height="80" as="geometry" />
        </mxCell>
        <mxCell id="EAQPb3Y_r5TRled_vukK-19" value="Hasil Pencarian Buku" style="text;html=1;strokeColor=none;fillColor=none;align=center;verticalAlign=middle;whiteSpace=wrap;rounded=0;" parent="1" vertex="1">
          <mxGeometry x="346.38" y="480" width="110" height="30" as="geometry" />
        </mxCell>
        <mxCell id="EAQPb3Y_r5TRled_vukK-20" value="" style="ellipse;whiteSpace=wrap;html=1;" parent="1" vertex="1">
          <mxGeometry x="321.88" y="550" width="159" height="80" as="geometry" />
        </mxCell>
        <mxCell id="EAQPb3Y_r5TRled_vukK-21" value="Detail Buku" style="text;html=1;strokeColor=none;fillColor=none;align=center;verticalAlign=middle;whiteSpace=wrap;rounded=0;" parent="1" vertex="1">
          <mxGeometry x="357.07" y="575" width="88.62" height="30" as="geometry" />
        </mxCell>
        <mxCell id="EAQPb3Y_r5TRled_vukK-22" value="" style="endArrow=none;html=1;rounded=0;entryX=0;entryY=0.5;entryDx=0;entryDy=0;exitX=1;exitY=0.3333333333333333;exitDx=0;exitDy=0;exitPerimeter=0;" parent="1" source="EAQPb3Y_r5TRled_vukK-8" target="EAQPb3Y_r5TRled_vukK-12" edge="1">
          <mxGeometry width="50" height="50" relative="1" as="geometry">
            <mxPoint x="170" y="340" as="sourcePoint" />
            <mxPoint x="440" y="370" as="targetPoint" />
          </mxGeometry>
        </mxCell>
        <mxCell id="EAQPb3Y_r5TRled_vukK-23" value="" style="endArrow=none;html=1;rounded=0;entryX=0;entryY=0.5;entryDx=0;entryDy=0;exitX=1;exitY=0.3333333333333333;exitDx=0;exitDy=0;exitPerimeter=0;" parent="1" source="EAQPb3Y_r5TRled_vukK-8" target="EAQPb3Y_r5TRled_vukK-14" edge="1">
          <mxGeometry width="50" height="50" relative="1" as="geometry">
            <mxPoint x="180" y="343" as="sourcePoint" />
            <mxPoint x="332" y="200" as="targetPoint" />
          </mxGeometry>
        </mxCell>
        <mxCell id="EAQPb3Y_r5TRled_vukK-24" value="" style="endArrow=none;html=1;rounded=0;entryX=0;entryY=0.5;entryDx=0;entryDy=0;exitX=1;exitY=0.3333333333333333;exitDx=0;exitDy=0;exitPerimeter=0;" parent="1" source="EAQPb3Y_r5TRled_vukK-8" target="EAQPb3Y_r5TRled_vukK-16" edge="1">
          <mxGeometry width="50" height="50" relative="1" as="geometry">
            <mxPoint x="180" y="353" as="sourcePoint" />
            <mxPoint x="332" y="300" as="targetPoint" />
          </mxGeometry>
        </mxCell>
        <mxCell id="EAQPb3Y_r5TRled_vukK-25" value="" style="endArrow=none;html=1;rounded=0;entryX=0;entryY=0.5;entryDx=0;entryDy=0;exitX=1;exitY=0.3333333333333333;exitDx=0;exitDy=0;exitPerimeter=0;" parent="1" source="EAQPb3Y_r5TRled_vukK-8" target="EAQPb3Y_r5TRled_vukK-18" edge="1">
          <mxGeometry width="50" height="50" relative="1" as="geometry">
            <mxPoint x="190" y="363" as="sourcePoint" />
            <mxPoint x="332" y="400" as="targetPoint" />
          </mxGeometry>
        </mxCell>
        <mxCell id="EAQPb3Y_r5TRled_vukK-26" value="" style="endArrow=none;html=1;rounded=0;exitX=1;exitY=0.3333333333333333;exitDx=0;exitDy=0;exitPerimeter=0;entryX=0;entryY=0.5;entryDx=0;entryDy=0;" parent="1" source="EAQPb3Y_r5TRled_vukK-8" target="EAQPb3Y_r5TRled_vukK-20" edge="1">
          <mxGeometry width="50" height="50" relative="1" as="geometry">
            <mxPoint x="180" y="353" as="sourcePoint" />
            <mxPoint x="332" y="500" as="targetPoint" />
          </mxGeometry>
        </mxCell>
        <mxCell id="EAQPb3Y_r5TRled_vukK-27" value="" style="endArrow=none;html=1;rounded=0;exitX=1;exitY=0.5;exitDx=0;exitDy=0;entryX=0;entryY=0.3333333333333333;entryDx=0;entryDy=0;entryPerimeter=0;" parent="1" source="EAQPb3Y_r5TRled_vukK-14" target="EAQPb3Y_r5TRled_vukK-9" edge="1">
          <mxGeometry width="50" height="50" relative="1" as="geometry">
            <mxPoint x="580" y="390" as="sourcePoint" />
            <mxPoint x="630" y="340" as="targetPoint" />
          </mxGeometry>
        </mxCell>
        <mxCell id="gesfPiQ1AZknO6_7Wmf5-1" value="" style="endArrow=none;html=1;rounded=0;entryX=0;entryY=0.3333333333333333;entryDx=0;entryDy=0;entryPerimeter=0;exitX=1;exitY=0.5;exitDx=0;exitDy=0;" edge="1" parent="1" source="EAQPb3Y_r5TRled_vukK-12" target="EAQPb3Y_r5TRled_vukK-9">
          <mxGeometry width="50" height="50" relative="1" as="geometry">
            <mxPoint x="491" y="300" as="sourcePoint" />
            <mxPoint x="640" y="353" as="targetPoint" />
          </mxGeometry>
        </mxCell>
        <mxCell id="gesfPiQ1AZknO6_7Wmf5-2" value="" style="endArrow=none;html=1;rounded=0;exitX=1;exitY=0.5;exitDx=0;exitDy=0;entryX=0;entryY=0.3333333333333333;entryDx=0;entryDy=0;entryPerimeter=0;" edge="1" parent="1" source="EAQPb3Y_r5TRled_vukK-16" target="EAQPb3Y_r5TRled_vukK-9">
          <mxGeometry width="50" height="50" relative="1" as="geometry">
            <mxPoint x="491" y="300" as="sourcePoint" />
            <mxPoint x="640" y="353" as="targetPoint" />
          </mxGeometry>
        </mxCell>
        <mxCell id="gesfPiQ1AZknO6_7Wmf5-3" value="" style="endArrow=none;html=1;rounded=0;exitX=1;exitY=0.5;exitDx=0;exitDy=0;" edge="1" parent="1" source="EAQPb3Y_r5TRled_vukK-18">
          <mxGeometry width="50" height="50" relative="1" as="geometry">
            <mxPoint x="491" y="400" as="sourcePoint" />
            <mxPoint x="630" y="340" as="targetPoint" />
          </mxGeometry>
        </mxCell>
        <mxCell id="gesfPiQ1AZknO6_7Wmf5-4" value="" style="endArrow=none;html=1;rounded=0;entryX=0;entryY=0.3333333333333333;entryDx=0;entryDy=0;entryPerimeter=0;exitX=1;exitY=0.5;exitDx=0;exitDy=0;" edge="1" parent="1" source="EAQPb3Y_r5TRled_vukK-20" target="EAQPb3Y_r5TRled_vukK-9">
          <mxGeometry width="50" height="50" relative="1" as="geometry">
            <mxPoint x="491" y="500" as="sourcePoint" />
            <mxPoint x="640" y="350" as="targetPoint" />
          </mxGeometry>
        </mxCell>
      </root>
    </mxGraphModel>
  </diagram>
</mxfile>
